<?xml version="1.0" encoding="UTF-8"?>
<svg id="uuid-5436fede-f45e-469e-899f-85e6ee62caee" data-name="Capa 1" xmlns="http://www.w3.org/2000/svg" viewBox="0 0 197.1 197.1">
  <defs>
    <style>
      .uuid-7c9599d8-8dde-4b42-a863-e4fc2cecf5bd {
        fill: #dddb00;
      }

      .uuid-7c9599d8-8dde-4b42-a863-e4fc2cecf5bd, .uuid-a8e11975-74ca-4c8e-ae64-e19b075b8616, .uuid-2cc0d7c3-d576-4abc-9349-7ffd3e9f6231 {
        stroke: #000;
        stroke-miterlimit: 10;
      }

      .uuid-7c9599d8-8dde-4b42-a863-e4fc2cecf5bd, .uuid-2cc0d7c3-d576-4abc-9349-7ffd3e9f6231 {
        stroke-width: 3px;
      }

      .uuid-a8e11975-74ca-4c8e-ae64-e19b075b8616, .uuid-2cc0d7c3-d576-4abc-9349-7ffd3e9f6231 {
        fill: #35a8e0;
      }
    </style>
  </defs>
  <rect class="uuid-7c9599d8-8dde-4b42-a863-e4fc2cecf5bd" x="1.5" y="1.5" width="194.1" height="194.1"/>
  <path class="uuid-2cc0d7c3-d576-4abc-9349-7ffd3e9f6231" d="M100.98,14.48c21.59-.47,37.25,7.07,50.06,20.75,5.75,6.14,5.26,8.31-1.35,13.64-.37.29-.76.56-1.14.83-4.37,3.14-8.38,7.93-13.2,8.97-5.34,1.15-7.78-5.83-11.81-8.86-13.43-10.11-33.55-8.07-45.45,4.83-11.58,12.55-11.47,33.36.25,46.45,11.23,12.54,30.79,14.69,44.21,4.84,1.14-.83,2.25-1.7,3.34-2.59q8.98-7.27,18.69.04c13.57,10.22,13.6,11.45.53,22.3-23.66,19.63-55.81,20.85-79.52,3.03-21.3-16.01-30.68-45.19-22.48-69.9,9.08-27.35,32.21-44.34,57.86-44.33Z"/>
  <g>
    <path class="uuid-a8e11975-74ca-4c8e-ae64-e19b075b8616" d="M115.52,159.62c0-3.49.03-6.07-.02-8.64-.02-1.1.32-1.59,1.49-1.57,4.35.08,3.76-.49,3.81,3.74.02,1.66.09,3.32.05,4.98-.03,1.22.46,1.32,1.45.92,3.52-1.41,6.97-1.39,10.35.5,4.2,2.35,6.52,7.43,5.65,12.44-.84,4.9-4.64,8.7-9.45,9.47-6.65,1.07-12.52-3.37-13.32-10.06-.5-4.23.34-8.46-.01-11.78ZM120.78,169.8c-.03,3.96,3.33,6.95,7.11,6.36.96-.15,1.5-.51.9-1.56-.17-.3-.32-.62-.45-.95-.9-2.42-1-4.86-.08-7.3.18-.49.35-1.17,1.18-.83,1.24.49,2.09,1.99,1.92,3.35-.1.78-.17,1.57.11,2.33.14.4.23.98.72,1,.63.03.64-.62.75-1.06.62-2.61-.17-4.79-2.26-6.4-1.95-1.51-4.18-1.76-6.41-.64-2.3,1.16-3.52,3.06-3.49,5.69Z"/>
    <path class="uuid-a8e11975-74ca-4c8e-ae64-e19b075b8616" d="M113.18,174.32c0,1.75.01,3.5,0,5.25-.01,1.41-.31,1.67-1.74,1.56-.48-.04-.95-.13-1.43-.16q-2.09-.13-2.1-2.27c0-2.89.04-5.77-.01-8.66-.06-3.65-2.55-6.3-5.92-6.57-2.77-.22-4.86.78-6.3,3.61-1.11,2.19-.7,5.01.95,6.86,2.47,2.77,5.72,3.04,8.74.73.21-.16.39-.42.67-.33.37.11.33.48.33.78,0,1.49-.02,2.97,0,4.46.01.88-.54,1.19-1.25,1.44-6.86,2.48-14.75-2.67-15.31-9.95-.29-3.77.75-7.16,3.37-9.73,4.21-4.12,11.03-4.64,15.76-.57,2.93,2.53,4.37,5.71,4.26,9.59-.04,1.31,0,2.62,0,3.93h-.02Z"/>
    <path class="uuid-a8e11975-74ca-4c8e-ae64-e19b075b8616" d="M55.4,169.7c0-6.63,4.98-11.63,11.58-11.64,6.63,0,11.5,5.09,11.59,11.94.08,5.96-4.7,11.63-11.66,11.67-6.43.04-11.51-5.33-11.51-11.97ZM67,176.2c3.36-.01,6.25-2.92,6.26-6.29.01-3.6-2.86-6.57-6.33-6.53-3.43.03-6.28,2.97-6.25,6.47.02,3.52,2.86,6.37,6.32,6.35Z"/>
    <path class="uuid-a8e11975-74ca-4c8e-ae64-e19b075b8616" d="M140.2,167.88c0-1.01,0-2.01,0-3.02,0-.69.27-.97.99-.67,2.06.85,4.31,2.92,4.31,5.71,0,3.49,2.93,6.28,6.28,6.28,3.22,0,6.05-2.78,6.23-6.1.18-3.39-2.43-6.46-5.88-6.68-1.27-.08-2.12-.48-2.81-1.52-.4-.6-1.01-1.08-1.57-1.57-.97-.83-.93-1.16.3-1.64,1.84-.72,3.77-.82,5.68-.48,5.95,1.08,9.92,6.32,9.58,12.54-.3,5.69-5.19,10.69-11.02,10.9-6.96.25-11.72-5.13-12.08-11.14-.05-.87,0-1.75,0-2.62Z"/>
    <path class="uuid-a8e11975-74ca-4c8e-ae64-e19b075b8616" d="M43.19,158.06c4.02-.09,6.93,1.32,9.32,3.86,1.07,1.14.98,1.55-.25,2.54-.07.05-.14.1-.21.16-.81.58-1.56,1.48-2.46,1.67-.99.21-1.45-1.08-2.2-1.65-2.5-1.88-6.24-1.5-8.46.9-2.16,2.34-2.13,6.21.05,8.64,2.09,2.33,5.73,2.73,8.23.9.21-.16.42-.32.62-.48q1.67-1.35,3.48,0c2.53,1.9,2.53,2.13.1,4.15-4.4,3.65-10.39,3.88-14.8.56-3.96-2.98-5.71-8.41-4.18-13.01,1.69-5.09,6-8.25,10.77-8.25Z"/>
    <path class="uuid-a8e11975-74ca-4c8e-ae64-e19b075b8616" d="M81.14,162.3c0-3.76.03-7.52-.02-11.28-.02-1.17.35-1.73,1.57-1.62.69.06,1.4.06,2.1,0,1.28-.12,1.65.46,1.65,1.68-.04,7.08-.02,14.17-.02,21.25,0,2.66.12,2.83,2.65,3.65.5.16.71.49.72.97.02.7.02,1.4.02,2.1,0,2.2-.13,2.32-2.3,2.12-3.63-.33-6.24-3.32-6.32-7.45-.08-3.8-.02-7.61-.02-11.41h-.02Z"/>
    <path class="uuid-a8e11975-74ca-4c8e-ae64-e19b075b8616" d="M142.82,149.41q2.66,0,2.66,2.6c0,2.14.09,4.29-.03,6.42-.07,1.38.4,2.24,1.51,3.05,3.37,2.47,4.81,7.25,3.48,11.14-.13.37-.29.73-.46,1.08-.29.56-.69.62-1.16.2-1-.9-1.8-1.88-1.82-3.34-.07-3.79-1.93-6.36-5.46-7.67-1.05-.39-1.38-1-1.36-2.06.04-3.14.01-6.29.02-9.44,0-1.98,0-1.98,1.96-1.99.22,0,.44,0,.66,0Z"/>
  </g>
</svg>